<svg xmlns="http://www.w3.org/2000/svg" style="display: none;">
  
    <symbol id="icon-star-full" viewBox="0 0 512 512">
      <path d="m494 185c0 4-3 9-8 14l-103 101 24 143c0 1 0 3 0 5 0 4-1 8-3 10-2 3-4 5-8 5-4 0-8-2-12-4l-128-67-128 67c-4 2-8 4-12 4-4 0-7-2-9-5-2-2-3-6-3-10 0-1 0-3 1-5l24-143-104-101c-4-6-7-10-7-14 0-7 6-12 16-13l144-21 64-130c4-8 8-12 14-12 6 0 10 4 14 12l64 130 144 21c10 1 16 6 16 13z"/>
    </symbol>
  
    <symbol id="icon-envelope" viewBox="0 0 512 512">
      <path d="m475 430l0-220c-6 7-12 13-19 19-51 39-92 72-122 97-10 8-18 14-24 19-6 4-14 9-24 14-11 4-21 7-30 7l0 0c-9 0-19-3-30-7-10-5-18-10-24-14-6-5-14-11-24-19-30-25-71-58-122-97-7-6-13-12-19-19l0 220c0 2 0 4 2 6 2 2 4 3 7 3l420 0c3 0 5-1 7-3 2-2 2-4 2-6z m0-301l0-7 0-3-1-4-1-2-3-3-4 0-420 0c-3 0-5 1-7 2-2 2-2 4-2 7 0 32 14 59 42 81 36 29 75 59 114 91 1 1 5 3 10 8 6 5 10 8 13 11 4 2 8 5 13 9 5 3 10 6 14 8 5 1 9 2 13 2l0 0c4 0 8-1 13-2 4-2 9-5 14-8 5-4 9-7 13-9 3-3 7-6 13-11 5-5 9-7 10-8 39-32 78-62 114-91 11-8 20-19 29-33 9-14 13-26 13-38z m37-10l0 311c0 12-4 23-13 32-9 9-20 13-33 13l-420 0c-13 0-24-4-33-13-9-9-13-20-13-32l0-311c0-13 4-23 13-32 9-9 20-14 33-14l420 0c13 0 24 5 33 14 9 9 13 19 13 32z"/>
    </symbol>
  
    <symbol id="icon-heart-full" viewBox="0 0 512 512">
      <path d="m256 475c-5 0-9-1-13-5l-178-172c-2-1-4-4-8-7-3-4-8-10-16-19-7-9-13-18-19-28-6-9-11-21-15-34-5-14-7-27-7-40 0-42 12-74 36-98 24-24 58-35 101-35 11 0 23 2 36 6 12 4 23 9 34 16 11 7 20 14 27 20 8 6 15 12 22 19 7-7 14-13 22-19 7-6 16-13 27-20 11-7 22-12 34-16 13-4 25-6 36-6 43 0 77 11 101 35 24 24 36 56 36 98 0 42-22 85-65 129l-178 171c-4 4-8 5-13 5z"/>
    </symbol>
  
    <symbol id="icon-heart" viewBox="0 0 512 512">
      <path d="m475 170c0-15-2-29-6-41-4-11-9-21-15-28-7-7-15-12-24-17-9-4-18-7-27-9-8-1-18-2-28-2-9 0-20 3-32 7-11 5-22 11-31 19-10 7-18 14-25 20-7 7-12 13-17 18-3 4-8 6-14 6-6 0-11-2-14-6-5-5-10-11-17-18-7-6-15-13-25-20-9-8-20-14-31-19-12-4-23-7-32-7-10 0-20 1-28 2-9 2-18 5-27 9-9 5-17 10-24 17-6 7-11 17-15 28-4 12-6 26-6 41 0 32 17 66 53 102l166 160 166-160c36-36 53-70 53-102z m37 0c0 42-22 85-65 129l-178 171c-4 4-8 5-13 5-5 0-9-1-13-5l-178-172c-2-1-4-4-8-7-3-4-8-10-16-19-7-9-13-18-19-28-6-9-11-21-15-34-5-14-7-27-7-40 0-42 12-74 36-98 24-24 58-35 101-35 11 0 23 2 36 6 12 4 23 9 34 16 11 7 20 14 27 20 8 6 15 12 22 19 7-7 14-13 22-19 7-6 16-13 27-20 11-7 22-12 34-16 13-4 25-6 36-6 43 0 77 11 101 35 24 24 36 56 36 98z"/>
    </symbol>
  
    <symbol id="icon-star" viewBox="0 0 512 512">
      <path d="m343 287l88-85-121-18-54-109-54 109-121 18 88 85-21 120 108-57 108 57z m151-102c0 4-3 9-8 14l-103 101 24 143c0 1 0 3 0 5 0 10-3 15-11 15-4 0-8-2-12-4l-128-67-128 67c-4 2-8 4-12 4-4 0-7-2-9-5-2-2-3-6-3-10 0-1 0-3 1-5l24-143-104-101c-4-6-7-10-7-14 0-7 6-12 16-13l144-21 64-130c4-8 8-12 14-12 6 0 10 4 14 12l64 130 144 21c10 1 16 6 16 13z"/>
    </symbol>
  
    <symbol id="icon-chevron-up" viewBox="0 0 512 512">
      <path d="m256 214l174 167c5 4 12 4 16 0l31-30c4-4 4-11 0-16l-213-204c-2-2-5-3-8-3-3 0-6 1-8 3l-213 204c-4 5-4 12 0 16l31 30c4 4 12 4 16 0z"/>
    </symbol>
  
    <symbol id="icon-chevron-down" viewBox="0 0 512 512">
      <path d="m256 298l174-167c5-4 12-4 16 0l31 30c4 5 4 12 0 16l-213 204c-2 2-5 3-8 3-3 0-6-1-8-3l-213-204c-4-4-4-11 0-16l31-30c4-4 12-4 16 0z"/>
    </symbol>
  
    <symbol id="icon-list" viewBox="0 0 512 512">
      <path d="m146 357l0 54c0 8-2 15-8 20c-5 5-12 8-19 8l-92 0c-7 0-14-3-19-8c-5-5-8-12-8-20l0-54c0-8 3-15 8-20c5-5 12-8 19-8l92 0c7 0 14 3 19 8c6 5 8 12 8 20z m0-147l0 55c0 8-2 14-8 20c-5 5-12 8-19 8l-92 0c-7 0-14-3-19-8c-5-6-8-12-8-20l0-55c0-7 3-14 8-19c5-5 12-8 19-8l92 0c7 0 14 3 19 8c6 5 8 12 8 19z m366 147l0 54c0 8-3 15-8 20c-5 5-12 8-19 8l-275 0c-7 0-14-3-19-8c-5-5-8-12-8-20l0-54c0-8 3-15 8-20c5-5 12-8 19-8l275 0c7 0 14 3 19 8c5 5 8 12 8 20z m-366-293l0 55c0 7-2 14-8 19c-5 6-12 8-19 8l-92 0c-7 0-14-2-19-8c-5-5-8-12-8-19l0-55c0-8 3-14 8-19c5-6 12-8 19-8l92 0c7 0 14 2 19 8c6 5 8 11 8 19z m366 146l0 55c0 8-3 14-8 20c-5 5-12 8-19 8l-275 0c-7 0-14-3-19-8c-5-6-8-12-8-20l0-55c0-7 3-14 8-19c5-5 12-8 19-8l275 0c7 0 14 3 19 8c5 5 8 12 8 19z m0-146l0 55c0 7-3 14-8 19c-5 6-12 8-19 8l-275 0c-7 0-14-2-19-8c-5-5-8-12-8-19l0-55c0-8 3-14 8-19c5-6 12-8 19-8l275 0c7 0 14 2 19 8c5 5 8 11 8 19z"/>
    </symbol>
  
    <symbol id="icon-grid" viewBox="0 0 512 512">
      <path d="m146 357l0 54c0 8-2 15-8 20c-5 5-12 8-19 8l-92 0c-7 0-14-3-19-8c-5-5-8-12-8-20l0-54c0-8 3-15 8-20c5-5 12-8 19-8l92 0c7 0 14 3 19 8c6 5 8 12 8 20z m0-147l0 55c0 8-2 14-8 20c-5 5-12 8-19 8l-92 0c-7 0-14-3-19-8c-5-6-8-12-8-20l0-55c0-7 3-14 8-19c5-5 12-8 19-8l92 0c7 0 14 3 19 8c6 5 8 12 8 19z m183 147l0 54c0 8-3 15-8 20c-5 5-12 8-19 8l-92 0c-7 0-14-3-19-8c-5-5-8-12-8-20l0-54c0-8 3-15 8-20c5-5 12-8 19-8l92 0c7 0 14 3 19 8c5 5 8 12 8 20z m-183-293l0 55c0 7-2 14-8 19c-5 6-12 8-19 8l-92 0c-7 0-14-2-19-8c-5-5-8-12-8-19l0-55c0-8 3-14 8-19c5-6 12-8 19-8l92 0c7 0 14 2 19 8c6 5 8 11 8 19z m183 146l0 55c0 8-3 14-8 20c-5 5-12 8-19 8l-92 0c-7 0-14-3-19-8c-5-6-8-12-8-20l0-55c0-7 3-14 8-19c5-5 12-8 19-8l92 0c7 0 14 3 19 8c5 5 8 12 8 19z m183 147l0 54c0 8-3 15-8 20c-5 5-12 8-19 8l-92 0c-7 0-14-3-19-8c-6-5-8-12-8-20l0-54c0-8 2-15 8-20c5-5 12-8 19-8l92 0c7 0 14 3 19 8c5 5 8 12 8 20z m-183-293l0 55c0 7-3 14-8 19c-5 6-12 8-19 8l-92 0c-7 0-14-2-19-8c-5-5-8-12-8-19l0-55c0-8 3-14 8-19c5-6 12-8 19-8l92 0c7 0 14 2 19 8c5 5 8 11 8 19z m183 146l0 55c0 8-3 14-8 20c-5 5-12 8-19 8l-92 0c-7 0-14-3-19-8c-6-6-8-12-8-20l0-55c0-7 2-14 8-19c5-5 12-8 19-8l92 0c7 0 14 3 19 8c5 5 8 12 8 19z m0-146l0 55c0 7-3 14-8 19c-5 6-12 8-19 8l-92 0c-7 0-14-2-19-8c-6-5-8-12-8-19l0-55c0-8 2-14 8-19c5-6 12-8 19-8l92 0c7 0 14 2 19 8c5 5 8 11 8 19z"/>
    </symbol>
  
    <symbol id="icon-checkbox" viewBox="0 0 512 512">
      <path d="m375 73l-238 0c-12 0-23 5-32 14-9 9-14 19-14 32l0 238c0 12 5 23 14 32 9 9 20 13 32 13l238 0c12 0 23-4 32-13 9-9 14-20 14-32l0-238c0-13-5-23-14-32-9-9-20-14-32-14z m82 46l0 238c0 22-8 42-24 58-16 16-35 24-58 24l-238 0c-23 0-42-8-58-24-16-16-24-36-24-58l0-238c0-23 8-42 24-58 16-16 35-24 58-24l238 0c23 0 42 8 58 24 16 16 24 35 24 58z"/>
    </symbol>
  
    <symbol id="icon-checkbox-checked" viewBox="0 0 512 512">
      <path d="m232 371l176-175c3-4 5-8 5-13 0-5-2-9-5-13l-29-29c-4-4-8-6-13-6-5 0-10 2-13 6l-134 133-60-60c-3-4-8-5-13-5-5 0-9 1-13 5l-29 29c-3 4-5 8-5 13 0 5 2 9 5 13l103 102c3 4 7 6 12 6 5 0 10-2 13-6z m243-252l0 274c0 23-8 42-24 58-16 16-35 24-58 24l-274 0c-23 0-42-8-58-24-16-16-24-35-24-58l0-274c0-23 8-42 24-58 16-16 35-24 58-24l274 0c23 0 42 8 58 24 16 16 24 35 24 58z"/>
    </symbol>
  
</svg>
